#!OML:ASF F:\VICON\USERDATA\INSTALL\Justin_Nancy\Justin_Nancy.ASF
:FULLY-SPECIFIED
:DEGREES
208
root 5.84404 16.7882 7.40011 112.288 84.4213 108.734
lowerback 8.13882 -0.192136 -9.33669
upperback 0.604303 -1.05219 0.665418
thorax -3.76248 -0.352872 6.0796
lowerneck -17.1896 -4.24977 -7.90827
upperneck 21.194 -4.78502 5.04285
head 9.89436 -2.22026 2.43989
rclavicle -9.44227e-016 7.95139e-015
rhumerus -37.4025 -12.851 -77.7672
rradius 34.2316
rwrist 3.31174
rhand -17.8487 10.5439
rfingers 7.12502
rthumb 8.41638 -19.2684
lclavicle -9.44227e-016 7.95139e-015
lhumerus -31.9773 3.55932 88.8099
lradius 29.0372
lwrist -5.56465
lhand -16.4552 24.8294
lfingers 7.12502
lthumb 9.761 54.5832
rfemur -34.6579 0.311709 6.1892
rtibia 22.6625
rfoot -9.86726 -5.85127
rtoes -8.40906
lfemur 14.4628 -4.26089 -32.1144
ltibia 16.788
lfoot -16.2915 -5.61591
ltoes -3.96995
209
root 6.08704 16.7973 7.43864 109.008 84.1194 105.664
lowerback 7.93378 0.00407393 -9.39906
upperback 0.608013 -0.781316 0.482597
thorax -3.69221 -0.221979 5.88784
lowerneck -17.0234 -4.31943 -7.90474
upperneck 21.1535 -4.86156 4.91406
head 9.85147 -2.27155 2.38458
rclavicle -3.42904e-015 3.18055e-015
rhumerus -37.6319 -13.4805 -77.2977
rradius 33.9588
rwrist 3.60859
rhand -18.1616 10.3646
rfingers 7.12502
rthumb 8.11433 -19.4596
lclavicle -3.42904e-015 3.18055e-015
lhumerus -31.9351 3.37663 88.8955
lradius 29.3538
lwrist -5.32707
lhand -16.7015 24.8405
lfingers 7.12502
lthumb 9.52336 54.6052
rfemur -34.2773 0.337832 6.02914
rtibia 23.3978
rfoot -7.35827 -3.52285
rtoes -6.12859
lfemur 14.9266 -4.87257 -32.8045
ltibia 17.8457
lfoot -15.5333 -4.56651
ltoes -8.90297
210
root 6.31749 16.8354 7.48352 111.954 85.2612 108.924
lowerback 8.17616 0.0370311 -7.94025
upperback 0.500603 -0.629036 0.754413
thorax -3.97864 -0.155106 5.33729
lowerneck -16.9368 -4.40613 -8.35405
upperneck 21.4203 -4.95074 5.26392
head 9.9595 -2.30815 2.57432
rclavicle 5.06901e-015 -9.93923e-015
rhumerus -37.8262 -13.8155 -76.801
rradius 33.551
rwrist 3.78055
rhand -17.9073 10.4318
rfingers 7.12502
rthumb 8.35978 -19.3827
lclavicle 5.06901e-015 -9.93923e-015
lhumerus -32.0279 3.52456 88.9036
lradius 29.6007
lwrist -4.76022
lhand -17.1817 25.0239
lfingers 7.12502
lthumb 9.06002 54.8093
rfemur -34.168 1.36552 7.23749
rtibia 24.9355
rfoot -5.42277 -2.60221
rtoes -1.55027
lfemur 15.7888 -5.42825 -31.5672
ltibia 18.142
lfoot -13.95 -4.61463
ltoes -10.7708
211
root 6.55439 16.8776 7.59629 121.874 85.3345 118.771
lowerback 8.08884 -0.236185 -8.13953
upperback 0.279648 -1.00306 1.08718
thorax -4.09718 -0.323948 5.84593
lowerneck -16.9921 -4.36764 -8.65017
upperneck 21.8611 -4.8129 5.26892
head 10.1264 -2.26554 2.64965
rclavicle 1.39646e-014 -1.70955e-014
rhumerus -37.9137 -13.9037 -76.3548
rradius 33.0393
rwrist 4.06219
rhand -17.3472 10.7291
rfingers 7.12502
rthumb 8.90029 -19.0632
lclavicle 1.39646e-014 -1.70955e-014
lhumerus -32.1762 4.18367 88.8911
lradius 29.8856
lwrist -3.77932
lhand -18.0606 25.5579
lfingers 7.12502
lthumb 8.21185 55.3784
rfemur -34.1027 1.97216 7.57119
rtibia 26.2292
rfoot -4.18456 -2.39217
rtoes 2.25461
lfemur 15.8013 -6.53139 -30.7527
ltibia 19.075
lfoot -12.2113 -5.50717
ltoes -11.6727
212
root 6.80476 16.9025 7.66258 120.096 85.3721 117.209
lowerback 7.87186 -0.216151 -8.18805
upperback 0.288826 -0.962475 1.06876
thorax -3.97163 -0.30927 5.84481
lowerneck -17.0746 -4.29506 -8.51991
upperneck 22.1797 -4.66862 4.97973
head 10.2347 -2.21936 2.54841
rclavicle -1.12313e-014 -3.97569e-016
rhumerus -37.8542 -14.3679 -76.0286
rradius 32.3286
rwrist 4.79162
rhand -16.7783 11.2615
rfingers 7.12502
rthumb 9.44922 -18.5066
lclavicle -1.12313e-014 -3.97569e-016
lhumerus -32.1541 4.46057 88.8625
lradius 30.0294
lwrist -2.68272
lhand -19.2307 26.5117
lfingers 7.12502
lthumb 7.08244 56.3732
rfemur -33.6439 2.18857 7.75809
rtibia 27.1374
rfoot -3.41674 -1.09693
rtoes 4.82061
lfemur 15.8088 -7.39648 -31.0296
ltibia 20.8543
lfoot -10.6494 -5.28537
ltoes -15.0161
213
root 7.04563 16.9281 7.70427 122.741 86.2887 120.22
lowerback 7.93847 -0.0711518 -6.93227
upperback 0.286356 -0.65861 1.16631
thorax -4.07111 -0.177725 5.20235
lowerneck -17.0212 -4.25258 -8.20279
upperneck 22.4075 -4.63814 4.73293
head 10.2894 -2.20565 2.41535
rclavicle -1.22253e-014 1.03368e-014
rhumerus -37.964 -14.9219 -75.6887
rradius 31.7063
rwrist 5.17306
rhand -16.8228 11.6041
rfingers 7.12502
rthumb 9.4063 -18.166
lclavicle -1.22253e-014 1.03368e-014
lhumerus -32.2263 4.4529 88.8003
lradius 30.1232
lwrist -2.08418
lhand -19.2331 26.4408
lfingers 7.12502
lthumb 7.08011 56.3023
rfemur -33.0915 2.09857 9.18927
rtibia 28.1089
rfoot -3.29399 0.0689332
rtoes 6.73889
lfemur 15.712 -7.88704 -30.2418
ltibia 22.9437
lfoot -8.69282 -5.3594
ltoes -16.4505
214
root 7.29049 16.9416 7.77577 127.776 86.5949 125.421
lowerback 7.86922 -0.0396753 -6.62673
upperback 0.185139 -0.581589 1.33876
thorax -4.15017 -0.138866 5.20243
lowerneck -16.9223 -4.24779 -8.51526
upperneck 22.571 -4.61862 5.00595
head 10.344 -2.19081 2.57158
rclavicle -3.62782e-015 -1.35174e-014
rhumerus -38.077 -15.1904 -75.2238
rradius 31.0915
rwrist 5.48474
rhand -17.3131 11.4715
rfingers 7.12502
rthumb 8.93317 -18.3194
lclavicle -3.62782e-015 -1.35174e-014
lhumerus -32.3991 4.75197 88.7538
lradius 30.1823
lwrist -1.09627
lhand -18.3128 25.7178
lfingers 7.12502
lthumb 7.96846 55.5476
rfemur -32.619 1.89322 10.0817
rtibia 28.9017
rfoot -3.31333 -0.210617
rtoes 6.98756
lfemur 15.0687 -8.35407 -29.6589
ltibia 25.4201
lfoot -6.23199 -5.77603
ltoes -16.4097
215
root 7.52915 16.9925 7.84185 135.779 86.8654 133.456
lowerback 7.74176 -0.144006 -6.18027
upperback 0.0941941 -0.665029 1.58119
thorax -4.16375 -0.184497 5.21262
lowerneck -17.2045 -4.17936 -9.06467
upperneck 22.9376 -4.3924 5.19653
head 10.5339 -2.10889 2.76709
rclavicle -1.2921e-015 1.27222e-014
rhumerus -37.8939 -15.5839 -74.7232
rradius 30.3731
rwrist 5.94442
rhand -17.26 11.2914
rfingers 7.12502
rthumb 8.98449 -18.4973
lclavicle -1.2921e-015 1.27222e-014
lhumerus -32.4217 5.70693 88.6017
lradius 30.0884
lwrist -0.643597
lhand -18.4068 25.8721
lfingers 7.12502
lthumb 7.87775 55.7054
rfemur -31.7865 2.3327 10.7263
rtibia 29.1937
rfoot -3.44423 -1.43173
rtoes 8.22464
lfemur 13.7045 -8.52691 -28.7699
ltibia 28.4577
lfoot -3.35549 -6.60699
ltoes -16.9687
216
root 7.76571 17.0082 7.90602 141.288 87.004 139.048
lowerback 7.60081 -0.288355 -5.94428
upperback 0.0623776 -0.820242 1.77574
thorax -4.09679 -0.266054 5.29823
lowerneck -17.5034 -4.03906 -9.34005
upperneck 23.2235 -4.07108 5.12829
head 10.676 -1.99198 2.83741
rclavicle -1.19271e-014 1.98785e-014
rhumerus -37.5967 -16.1919 -74.3352
rradius 29.6735
rwrist 6.72961
rhand -17.2254 11.2748
rfingers 7.12502
rthumb 9.01781 -18.5124
lclavicle -1.19271e-014 1.98785e-014
lhumerus -32.5647 6.1814 88.5587
lradius 30.1583
lwrist -0.114028
lhand -19.2243 26.0992
lfingers 7.12502
lthumb 7.0886 55.9605
rfemur -31.2633 1.71351 11.9934
rtibia 29.6444
rfoot -2.91739 -1.13534
rtoes -7.67212
lfemur 12.4634 -8.81976 -28.2295
ltibia 31.2815
lfoot 0.524301 -7.62211
ltoes -16.5281
